 <svg  version="1.0" xmlns="http://www.w3.org/2000/svg"  width="130.87" height="130.61" viewBox="0 0 900.000000 663.000000"  preserveAspectRatio="xMidYMid meet">  <g transform="translate(0.000000,663.000000) scale(0.100000,-0.100000)" fill="#000000" stroke="none"> <path d="M1860 4715 c0 -8 4 -24 9 -37 4 -13 16 -50 25 -83 49 -174 77 -265 94 -307 l15 -38 454 0 c249 0 453 4 453 8 0 9 -66 64 -225 185 -125 96 -224 173 -250 195 -11 9 -41 34 -67 55 l-46 37 -231 0 c-195 0 -231 -2 -231 -15z"/> <path d="M7585 4659 c-49 -38 -99 -78 -110 -87 -11 -9 -49 -39 -85 -67 -36 -27 -75 -58 -87 -69 -11 -12 -64 -52 -117 -91 -52 -38 -96 -76 -96 -82 0 -10 97 -13 454 -13 l453 0 17 43 c9 23 16 48 16 54 0 7 6 27 14 45 7 18 21 60 30 93 10 33 22 74 28 90 9 27 15 49 34 128 l6 27 -233 0 -234 -1 -90 -70z"/> <path d="M4706 4151 c-6 -10 108 -109 227 -195 37 -28 67 -53 67 -57 0 -16 -41 -20 -160 -18 l-124 2 -18 -28 c-9 -16 -22 -47 -27 -70 -9 -37 -20 -75 -57 -195 -46 -152 -100 -339 -111 -385 -3 -16 17 -36 102 -99 59 -44 112 -84 118 -90 7 -6 24 -20 38 -31 15 -11 72 -55 127 -97 56 -43 106 -78 113 -78 6 0 32 17 58 39 25 21 115 91 200 155 217 165 221 169 221 189 0 11 -6 31 -14 45 -8 15 -21 47 -31 72 -9 25 -23 58 -31 73 -8 16 -14 33 -14 38 0 5 -14 38 -31 74 l-31 66 37 44 36 45 145 0 145 0 66 -50 c36 -27 72 -50 79 -50 19 0 20 288 2 312 -7 9 -40 38 -73 64 -58 48 -62 49 -139 54 l-79 5 -61 85 -62 85 -356 3 c-215 1 -359 -1 -362 -7z m659 -181 c6 -10 -44 -59 -93 -92 -30 -19 -36 -17 -117 44 -30 22 -52 44 -49 49 7 12 251 11 259 -1z"/> <path d="M2515 4113 c-252 -2 -463 -7 -467 -11 -6 -6 61 -226 91 -297 15 -38 33 -90 40 -120 l7 -30 363 -3 363 -2 81 -62 c45 -34 87 -67 92 -74 6 -6 37 -32 71 -57 34 -25 72 -55 85 -66 13 -11 85 -68 159 -126 74 -59 155 -123 180 -144 25 -20 83 -66 130 -101 47 -36 94 -72 105 -81 50 -42 238 -191 315 -249 47 -35 91 -70 98 -77 7 -7 41 -34 75 -60 34 -26 71 -55 82 -65 11 -9 88 -69 170 -133 83 -64 203 -157 269 -208 151 -117 165 -127 185 -119 16 6 77 51 281 212 246 193 354 277 433 338 45 35 84 66 87 70 3 4 64 52 135 107 72 54 132 101 135 105 3 3 42 35 88 71 46 35 112 87 146 114 133 106 281 223 364 287 48 38 104 82 124 99 20 17 52 43 71 57 19 15 65 52 103 83 38 31 79 61 91 67 15 9 125 12 371 12 273 0 352 3 360 13 10 12 64 158 82 222 4 17 20 65 35 108 14 43 25 87 23 99 l-3 21 -500 -1 c-275 -1 -507 -2 -517 -2 -13 0 -190 -127 -208 -150 -3 -3 -42 -35 -88 -71 -46 -35 -124 -95 -172 -134 -49 -38 -162 -126 -250 -194 -89 -68 -167 -129 -173 -136 -7 -6 -41 -33 -77 -61 -36 -27 -76 -59 -90 -71 -14 -12 -108 -85 -210 -163 -389 -296 -497 -380 -565 -434 -38 -31 -76 -56 -84 -56 -8 0 -39 19 -69 43 -30 23 -70 53 -88 67 -265 202 -321 246 -331 256 -6 6 -92 73 -190 148 -98 75 -212 163 -253 196 -41 33 -145 114 -230 180 -85 65 -207 160 -270 210 -63 50 -169 132 -235 183 -66 50 -142 109 -170 132 -68 58 -86 65 -142 63 -26 -2 -255 -4 -508 -5z"/> <path d="M2253 3504 c-3 -8 -1 -25 4 -37 6 -12 18 -49 28 -82 9 -33 23 -76 30 -95 7 -19 20 -62 30 -95 10 -33 27 -79 37 -102 l18 -43 520 0 c286 0 520 4 520 8 0 13 -83 79 -396 317 l-190 145 -297 0 c-261 0 -298 -2 -304 -16z"/> <path d="M7125 3508 c-22 -13 -137 -99 -145 -108 -3 -4 -57 -47 -120 -95 -63 -49 -120 -94 -127 -101 -6 -6 -50 -40 -97 -75 -47 -35 -82 -67 -78 -71 5 -5 239 -7 522 -6 444 3 514 5 520 18 14 28 38 94 70 200 18 58 39 121 46 140 8 19 15 51 16 70 l3 35 -295 2 c-207 2 -301 -1 -315 -9z"/> <path d="M2550 2896 c0 -14 4 -27 9 -30 5 -3 11 -18 14 -33 5 -28 30 -101 47 -138 5 -11 19 -51 31 -88 12 -37 26 -70 30 -73 5 -3 9 -14 9 -24 0 -47 1 -47 768 -49 452 -1 722 2 722 8 0 15 -172 154 -524 422 -18 14 -87 17 -563 23 l-543 6 0 -24z"/> <path d="M6335 2888 c-22 -15 -70 -51 -107 -80 -37 -29 -123 -97 -193 -151 -132 -102 -159 -124 -209 -170 l-31 -27 742 3 c566 2 745 6 756 15 8 7 17 23 20 35 3 12 15 47 27 77 12 30 26 69 30 85 5 17 15 48 24 70 54 143 56 148 44 163 -10 11 -95 13 -537 10 l-525 -3 -41 -27z"/> <path d="M3533 2314 c-3 -8 1 -32 9 -52 9 -20 23 -64 33 -97 9 -33 23 -76 30 -95 7 -19 23 -67 35 -107 12 -40 28 -77 35 -83 8 -7 82 -9 210 -8 217 3 200 -2 228 73 8 22 22 58 30 80 36 97 95 290 91 297 -3 4 -160 8 -350 8 -302 0 -345 -2 -351 -16z"/> <path d="M5756 2321 c-4 -5 0 -25 8 -43 17 -42 35 -94 46 -133 13 -46 48 -145 78 -220 l21 -50 203 0 203 0 17 35 c9 19 24 60 32 90 9 30 35 109 57 175 22 66 41 127 42 135 2 13 -44 15 -350 18 -213 1 -354 -1 -357 -7z"/> <path d="M4377 2302 c-2 -4 -18 -54 -37 -112 -18 -58 -38 -121 -45 -140 -7 -19 -21 -62 -30 -95 -10 -33 -24 -75 -31 -93 -8 -18 -14 -42 -14 -53 0 -11 -5 -29 -10 -40 -16 -29 1 -47 132 -147 64 -48 160 -123 214 -167 54 -44 140 -111 190 -150 50 -38 123 -96 162 -128 39 -31 77 -57 85 -57 12 0 230 159 247 180 3 3 64 50 135 105 72 54 132 101 135 105 6 7 157 125 203 158 67 48 88 72 77 92 -6 10 -10 26 -10 35 0 9 -6 31 -14 48 -8 18 -16 43 -19 57 -3 14 -22 70 -42 125 -20 55 -40 114 -44 130 -5 17 -13 41 -19 55 -6 14 -13 38 -17 53 -12 59 1 67 -460 -289 -82 -63 -155 -118 -162 -121 -6 -2 -56 29 -110 71 -242 186 -310 239 -333 259 -50 43 -145 113 -162 120 -10 3 -19 3 -21 -1z"/> <path d="M4139 1563 c-6 -16 -17 -43 -25 -61 -8 -18 -14 -39 -14 -47 0 -9 -4 -23 -10 -33 -11 -18 -36 -89 -50 -137 -4 -16 -13 -43 -19 -60 -6 -16 -31 -90 -56 -164 l-44 -133 23 -22 c50 -47 235 -191 239 -185 11 17 37 82 37 94 0 8 6 29 14 47 8 18 22 60 31 93 10 33 23 76 30 95 7 19 18 51 24 70 7 19 16 49 21 65 11 39 29 91 46 133 20 47 18 97 -5 113 -10 8 -60 47 -111 87 -50 39 -98 72 -106 72 -8 0 -19 -12 -25 -27z"/> <path d="M5788 1563 c-18 -15 -35 -30 -38 -33 -3 -3 -34 -28 -70 -55 -99 -74 -101 -78 -78 -139 19 -49 40 -117 57 -182 5 -18 12 -37 16 -44 4 -7 11 -26 16 -44 4 -17 26 -83 48 -146 22 -63 40 -122 41 -131 0 -9 8 -27 19 -40 l19 -23 37 29 c21 17 72 56 114 89 42 32 81 66 88 76 14 19 14 18 -46 190 -7 19 -16 49 -21 65 -5 17 -14 46 -21 65 -6 19 -17 51 -24 70 -7 19 -18 51 -24 70 -7 19 -17 49 -21 65 -30 104 -50 144 -72 145 -3 0 -21 -12 -40 -27z"/> <path d="M4511 1268 c-11 -23 -54 -151 -96 -283 -43 -132 -83 -257 -91 -278 -8 -20 -14 -50 -14 -66 0 -29 14 -42 179 -169 30 -23 59 -48 63 -55 13 -21 42 7 55 54 7 24 19 67 28 94 8 28 21 73 29 100 9 28 25 82 36 120 12 39 25 86 29 105 5 19 13 46 18 60 6 14 18 51 28 83 18 57 18 57 -4 81 -12 13 -54 47 -92 77 -39 30 -89 69 -110 87 l-38 34 -20 -44z"/> <path d="M5333 1207 c-135 -102 -138 -106 -109 -197 8 -25 22 -72 32 -105 9 -33 22 -78 29 -100 13 -42 36 -124 62 -215 8 -30 21 -73 29 -95 8 -23 14 -48 14 -57 0 -24 18 -32 39 -16 75 54 193 148 225 179 l40 38 -16 38 c-8 21 -23 65 -33 98 -9 33 -22 71 -27 85 -6 14 -14 39 -18 55 -5 17 -14 46 -21 65 -6 19 -17 51 -24 70 -7 19 -20 62 -30 95 -10 33 -24 74 -31 90 -6 17 -14 38 -18 48 -3 9 -9 17 -13 17 -4 0 -63 -42 -130 -93z"/> <path d="M5060 1001 c0 -6 -17 -19 -38 -30 l-39 -20 -27 26 c-35 32 -52 25 -66 -29 -7 -24 -18 -58 -26 -76 -8 -18 -14 -40 -14 -50 0 -9 -6 -34 -14 -57 -8 -22 -22 -67 -31 -100 -10 -33 -24 -78 -30 -100 -7 -22 -21 -67 -30 -100 -10 -33 -24 -77 -32 -98 -14 -39 -13 -39 24 -74 21 -19 74 -63 118 -96 44 -34 91 -72 105 -84 14 -13 30 -23 36 -23 9 0 107 71 124 90 3 3 28 23 55 45 91 72 98 82 97 126 -1 22 -9 53 -17 69 -8 16 -15 38 -15 49 0 11 -6 38 -14 58 -13 37 -27 85 -61 203 -60 211 -81 274 -94 278 -6 2 -11 -1 -11 -7z"/> </g> </svg> 